<?xml version="1.0" encoding="UTF-8"?>
<svg width="20px" height="20px" viewBox="0 0 20 20" version="1.1" xmlns="http://www.w3.org/2000/svg" xmlns:xlink="http://www.w3.org/1999/xlink">
    <!-- Generator: Sketch 53.2 (72643) - https://sketchapp.com -->
    <title>icn/tile-fuel-type</title>
    <desc>Created with Sketch.</desc>
    <g id="icn/tile-fuel-type" stroke="none" stroke-width="1" fill="none" fill-rule="evenodd">
        <path d="M16.4592313,6.57403807 L14.2387466,4.35355339 C14.0434845,4.15829124 14.0434845,3.84170876 14.2387466,3.64644661 C14.4340088,3.45118446 14.7505912,3.45118446 14.9458534,3.64644661 L18.1980928,6.898686 C18.6272728,7.22038452 18.9230073,7.71052627 18.9869965,8.27081166 C19.0224679,8.33946713 19.0425,8.41739419 19.0425,8.5 L19.0425,14.4023595 C19.0425,15.6173597 18.0816357,16.5409 16.8177425,16.5409 C15.5645686,16.5409 14.5929851,15.5110594 14.5929851,14.2819071 L14.5929851,13.8421589 C14.5929851,13.191382 14.0179813,12.5831661 13.3682276,12.5831661 L13,12.5831661 L13,17 C13,17.5522847 12.5522847,18 12,18 L3,18 C2.44771525,18 2,17.5522847 2,17 L2,5 C2,3.34314575 3.34314575,2 5,2 L10,2 C11.6568542,2 13,3.34314575 13,5 L13,11.5831661 L13.3682276,11.5831661 C14.5832123,11.5831661 15.5929851,12.6512631 15.5929851,13.8421589 L15.5929851,14.2819071 C15.5929851,14.9713748 16.1302928,15.5409 16.8177425,15.5409 C17.5380206,15.5409 18.0425,15.0560167 18.0425,14.4023595 L18.0425,10.2069275 C17.7388852,10.3928255 17.3819015,10.5 17,10.5 C15.8958576,10.5 15,9.60414237 15,8.5 C15,7.58323227 15.6176003,6.81005512 16.4592313,6.57403807 Z M17.7354857,7.82278432 C17.6954155,7.80062611 17.6577424,7.77254913 17.6237466,7.73855339 L17.5503817,7.66518845 C17.3924669,7.56080013 17.2032691,7.5 17,7.5 C16.4481424,7.5 16,7.94814237 16,8.5 C16,9.05185763 16.4481424,9.5 17,9.5 C17.5518576,9.5 18,9.05185763 18,8.5 C18,8.23887824 17.899666,8.00097715 17.7354857,7.82278432 Z M5,3 C3.8954305,3 3,3.8954305 3,5 L3,17 L12,17 L12,5 C12,3.8954305 11.1045695,3 10,3 L5,3 Z M6,5 C5.44771525,5 5,5.44771525 5,6 L5,8 C5,8.55228475 5.44771525,9 6,9 L9,9 C9.55228475,9 10,8.55228475 10,8 L10,6 C10,5.44771525 9.55228475,5 9,5 L6,5 Z M6,4 L9,4 C10.1045695,4 11,4.8954305 11,6 L11,8 C11,9.1045695 10.1045695,10 9,10 L6,10 C4.8954305,10 4,9.1045695 4,8 L4,6 C4,4.8954305 4.8954305,4 6,4 Z" id="Combined-Shape" fill="#787C83" fill-rule="nonzero"></path>
    </g>
</svg>