<?xml version="1.0" encoding="UTF-8"?>
<svg width="20px" height="20px" viewBox="0 0 20 20" version="1.1" xmlns="http://www.w3.org/2000/svg" xmlns:xlink="http://www.w3.org/1999/xlink">
    <!-- Generator: Sketch 53.2 (72643) - https://sketchapp.com -->
    <title>icn/tile-manual</title>
    <desc>Created with Sketch.</desc>
    <g id="icn/tile-manual" stroke="none" stroke-width="1" fill="none" fill-rule="evenodd">
        <path d="M8.56211257,9.0038202 C8.74243074,8.29825833 9.29825833,7.74243074 10.0038202,7.56211257 C10.0012987,7.54176224 10,7.52103278 10,7.5 L10,6 C10,5.72385763 10.2238576,5.5 10.5,5.5 C10.7761424,5.5 11,5.72385763 11,6 L11,7.5 C11,7.52099502 10.998706,7.54168781 10.9961934,7.56200296 C11.7023716,7.74220458 12.2578279,8.29811018 12.4379663,9.00381044 C12.4582913,9.00129532 12.4789944,9 12.5,9 L17,9 L17,5.99133301 C17,5.71519063 17.2238576,5.49133301 17.5,5.49133301 C17.7761424,5.49133301 18,5.71519063 18,5.99133301 L18,9.49133301 C18,9.498685 17.9998413,9.50599994 17.9995272,9.51327457 C17.9924901,9.78328094 17.7714038,10 17.4997,10 L12.5,10 C12.4789944,10 12.4582913,9.99870468 12.4379663,9.99618956 C12.2581517,10.7006213 11.7043673,11.2557964 11,11.4370217 L11,12.991333 C11,13.2674754 10.7761424,13.491333 10.5,13.491333 C10.2238576,13.491333 10,13.2674754 10,12.991333 L10,11.4369071 C9.29625247,11.2555617 8.74210518,10.7004678 8.56211257,9.9961798 C8.54176224,9.99870133 8.52103278,10 8.5,10 L4.0001718,10 L4.0003,12.9913116 C4.00031183,13.267454 3.7764638,13.4913212 3.50032143,13.491333 C3.22417905,13.4913448 3.00031184,13.2674968 3.0003,12.9913544 L3.0001509,9.51240606 C3.00005049,9.50828289 3,9.50414734 3,9.5 C3,9.4958673 3.00005014,9.49174631 3.00014984,9.48763761 L3,5.99135444 C2.99998817,5.71521206 3.2238362,5.49134484 3.49997857,5.49133301 C3.77612095,5.49132117 3.99998816,5.7151692 4,5.99131158 L4.00012894,9 L8.5,9 C8.52103278,9 8.54176224,9.00129867 8.56211257,9.0038202 Z M4.5,3 C4.5,2.44772107 4.05248506,2 3.5,2 C2.94828475,2 2.5,2.44828475 2.5,3 C2.5,3.55171525 2.94828475,4 3.5,4 C4.05248506,4 4.5,3.55227893 4.5,3 Z M5.5,3 C5.5,4.104 4.60533333,5 3.5,5 C2.396,5 1.5,4.104 1.5,3 C1.5,1.896 2.396,1 3.5,1 C4.60533333,1 5.5,1.896 5.5,3 Z M4.5,16 C4.5,15.4477211 4.05248506,15 3.5,15 C2.94828475,15 2.5,15.4482847 2.5,16 C2.5,16.5517153 2.94828475,17 3.5,17 C4.05248506,17 4.5,16.5522789 4.5,16 Z M5.5,16 C5.5,17.104 4.60533333,18 3.5,18 C2.396,18 1.5,17.104 1.5,16 C1.5,14.896 2.396,14 3.5,14 C4.60533333,14 5.5,14.896 5.5,16 Z M11.5,3 C11.5,2.44772107 11.0524851,2 10.5,2 C9.94828475,2 9.5,2.44828475 9.5,3 C9.5,3.55171525 9.94828475,4 10.5,4 C11.0524851,4 11.5,3.55227893 11.5,3 Z M12.5,3 C12.5,4.104 11.6053333,5 10.5,5 C9.396,5 8.5,4.104 8.5,3 C8.5,1.896 9.396,1 10.5,1 C11.6053333,1 12.5,1.896 12.5,3 Z M11.5,16 C11.5,15.4477211 11.0524851,15 10.5,15 C9.94828475,15 9.5,15.4482847 9.5,16 C9.5,16.5517153 9.94828475,17 10.5,17 C11.0524851,17 11.5,16.5522789 11.5,16 Z M12.5,16 C12.5,17.104 11.6053333,18 10.5,18 C9.396,18 8.5,17.104 8.5,16 C8.5,14.896 9.396,14 10.5,14 C11.6053333,14 12.5,14.896 12.5,16 Z M18.5,3 C18.5,2.44772107 18.0524851,2 17.5,2 C16.9482847,2 16.5,2.44828475 16.5,3 C16.5,3.55171525 16.9482847,4 17.5,4 C18.0524851,4 18.5,3.55227893 18.5,3 Z M19.5,3 C19.5,4.104 18.6053333,5 17.5,5 C16.396,5 15.5,4.104 15.5,3 C15.5,1.896 16.396,1 17.5,1 C18.6053333,1 19.5,1.896 19.5,3 Z M11.5,9.5 C11.5,8.94772107 11.0524851,8.5 10.5,8.5 C9.94828475,8.5 9.5,8.94828475 9.5,9.5 C9.5,10.0517153 9.94828475,10.5 10.5,10.5 C11.0524851,10.5 11.5,10.0522789 11.5,9.5 Z" id="Combined-Shape" fill="#787C83" fill-rule="nonzero"></path>
    </g>
</svg>