<?xml version="1.0" encoding="UTF-8"?>
<svg width="20px" height="20px" viewBox="0 0 20 20" version="1.1" xmlns="http://www.w3.org/2000/svg" xmlns:xlink="http://www.w3.org/1999/xlink">
    <!-- Generator: Sketch 51.2 (57519) - http://www.bohemiancoding.com/sketch -->
    <title>icn/tile-mileage</title>
    <desc>Created with Sketch.</desc>
    <defs></defs>
    <g id="icn/tile-mileage" stroke="none" stroke-width="1" fill="none" fill-rule="evenodd">
        <path d="M17.4485985,15.4802994 C17.324039,15.69554 17.0485766,15.7690516 16.833336,15.644492 C16.6180954,15.5199325 16.5445838,15.2444701 16.6691433,15.0292295 C18.3930166,12.0503521 17.9136538,8.23677477 15.4347507,5.75787175 C12.4329178,2.7560388 7.57629948,2.7467134 4.58719273,5.73582016 C2.05694767,8.26606522 1.6375608,12.2005788 3.51419216,15.2075421 C3.64585697,15.4185112 3.58156814,15.6962709 3.37059902,15.8279357 C3.1596299,15.9596005 2.88187022,15.8953116 2.7502054,15.6843425 C0.653139314,12.3241724 1.12177237,7.92765152 3.95039823,5.09902566 C7.29174547,1.75767842 12.7185667,1.76809869 16.0715452,5.12107725 C18.8403126,7.88984461 19.3758151,12.1500419 17.4485985,15.4802994 Z M13.1763621,6.25176897 C13.2842203,6.32859352 13.2917749,6.51681549 13.1943703,6.70005124 C12.8271791,7.39049702 10.9219611,10.9712898 10.6380903,11.3794249 C10.4322331,11.6753494 10.229278,11.774075 9.97215211,11.8816192 C9.71502625,11.9891633 9.4629098,11.9896824 9.27723745,11.8575169 C8.90589535,11.5931311 8.86200187,10.9436582 9.27368533,10.3517682 C9.55757195,9.94364438 12.2347995,6.96874955 12.753216,6.38598342 C12.8908306,6.23131733 13.0684854,6.17498801 13.1763621,6.25176897 Z M7.5,15 L12.5,15 C12.7761424,15 13,15.2238576 13,15.5 C13,15.7761424 12.7761424,16 12.5,16 L7.5,16 C7.22385763,16 7,15.7761424 7,15.5 C7,15.2238576 7.22385763,15 7.5,15 Z" id="Combined-Shape" fill="#787C83" fill-rule="nonzero"></path>
    </g>
</svg>
