<?xml version="1.0" encoding="UTF-8"?>
<svg width="20px" height="20px" viewBox="0 0 20 20" version="1.1" xmlns="http://www.w3.org/2000/svg" xmlns:xlink="http://www.w3.org/1999/xlink">
    <!-- Generator: Sketch 51.2 (57519) - http://www.bohemiancoding.com/sketch -->
    <title>icn/tile-year</title>
    <desc>Created with Sketch.</desc>
    <defs></defs>
    <g id="icn/tile-year" stroke="none" stroke-width="1" fill="none" fill-rule="evenodd">
        <path d="M15,4 L17,4 C17.5522847,4 18,4.44771525 18,5 L18,15 C18,15.5522847 17.5522847,16 17,16 L3,16 C2.44771525,16 2,15.5522847 2,15 L2,5 C2,4.44771525 2.44771525,4 3,4 L5,4 L5,3.5 C5,3.22385763 5.22385763,3 5.5,3 C5.77614237,3 6,3.22385763 6,3.5 L6,4 L14,4 L14,3.5 C14,3.22385763 14.2238576,3 14.5,3 C14.7761424,3 15,3.22385763 15,3.5 L15,4 Z M15,5 L15,5.5 C15,5.77614237 14.7761424,6 14.5,6 C14.2238576,6 14,5.77614237 14,5.5 L14,5 L6,5 L6,5.5 C6,5.77614237 5.77614237,6 5.5,6 C5.22385763,6 5,5.77614237 5,5.5 L5,5 L3,5 L3,15 L17,15 L17,5 L15,5 Z M3,7 L17,7 L17,8 L3,8 L3,7 Z" id="Combined-Shape" fill="#787C83" fill-rule="nonzero"></path>
    </g>
</svg>